# xmcd
#
# Track frame offsets:
#	150
#	12367
#	27965
#	44682
#	57409
#	74079
#	84841
#	99600
#	111707
#	127609
#	141845
#	157480
#
# Disc length: 2230 seconds
#
# Revision: 0
# Processed by: cddbd v1.5.2PL0 Copyright (c) Steve Scherf et al.
# Submitted via: EasyCDDAExtractor 16.0.6.1
#
DISCID=b008b40c
DTITLE=The Aftermath - Charming October
DYEAR=2012
DGENRE=Blues
TTITLE0=How Can I Find You
TTITLE1=Girl With A Hat On Her Head
TTITLE2=I Haven't Seen You Many Days
TTITLE3=Charming October
TTITLE4=I've Got Nothing To Give You
TTITLE5=Dali
TTITLE6=Bouquet From My Garden To Her
TTITLE7=Some Time Ago
TTITLE8=Lonely
TTITLE9=Town Sinking In The Sobs
TTITLE10=Ballad Of A Dearest Friend
TTITLE11=If I Say
EXTD=
EXTT0=
EXTT1=
EXTT2=
EXTT3=
EXTT4=
EXTT5=
EXTT6=
EXTT7=
EXTT8=
EXTT9=
EXTT10=
EXTT11=
PLAYORDER=
